<?xml version="1.0" encoding="UTF-8" standalone="no"?>
<!-- Created with Inkscape (http://www.inkscape.org/) -->

<svg
   xmlns:dc="http://purl.org/dc/elements/1.1/"
   xmlns:cc="http://creativecommons.org/ns#"
   xmlns:rdf="http://www.w3.org/1999/02/22-rdf-syntax-ns#"
   xmlns:svg="http://www.w3.org/2000/svg"
   xmlns="http://www.w3.org/2000/svg"
   xmlns:xlink="http://www.w3.org/1999/xlink"
   xmlns:sodipodi="http://sodipodi.sourceforge.net/DTD/sodipodi-0.dtd"
   xmlns:inkscape="http://www.inkscape.org/namespaces/inkscape"
   width="210mm"
   height="297mm"
   viewBox="0 0 210 297"
   version="1.1"
   id="svg8"
   inkscape:version="0.92.3 (2405546, 2018-03-11)"
   sodipodi:docname="pm-flowers-1.svg"
   enable-background="new">
  <defs
     id="defs2">
    <marker
       inkscape:stockid="Arrow1Lstart"
       orient="auto"
       refY="0.0"
       refX="0.0"
       id="marker2579"
       style="overflow:visible"
       inkscape:isstock="true">
      <path
         id="path2577"
         d="M 0.0,0.0 L 5.0,-5.0 L -12.5,0.0 L 5.0,5.0 L 0.0,0.0 z "
         style="fill-rule:evenodd;stroke:#dddddd;stroke-width:1pt;stroke-opacity:1;fill:#c7cb2c;fill-opacity:1"
         transform="scale(0.8) translate(12.5,0)" />
    </marker>
    <marker
       inkscape:stockid="Arrow1Lstart"
       orient="auto"
       refY="0.0"
       refX="0.0"
       id="marker2527"
       style="overflow:visible"
       inkscape:isstock="true">
      <path
         id="path2525"
         d="M 0.0,0.0 L 5.0,-5.0 L -12.5,0.0 L 5.0,5.0 L 0.0,0.0 z "
         style="fill-rule:evenodd;stroke:#dddddd;stroke-width:1pt;stroke-opacity:1;fill:#c7cb2c;fill-opacity:1"
         transform="scale(0.8) translate(12.5,0)" />
    </marker>
    <marker
       inkscape:stockid="Arrow1Lstart"
       orient="auto"
       refY="0.0"
       refX="0.0"
       id="marker2481"
       style="overflow:visible"
       inkscape:isstock="true">
      <path
         id="path2479"
         d="M 0.0,0.0 L 5.0,-5.0 L -12.5,0.0 L 5.0,5.0 L 0.0,0.0 z "
         style="fill-rule:evenodd;stroke:#dddddd;stroke-width:1pt;stroke-opacity:1;fill:#c7cb2c;fill-opacity:1"
         transform="scale(0.8) translate(12.5,0)" />
    </marker>
    <marker
       inkscape:stockid="Arrow1Lstart"
       orient="auto"
       refY="0.0"
       refX="0.0"
       id="marker2441"
       style="overflow:visible"
       inkscape:isstock="true">
      <path
         id="path2439"
         d="M 0.0,0.0 L 5.0,-5.0 L -12.5,0.0 L 5.0,5.0 L 0.0,0.0 z "
         style="fill-rule:evenodd;stroke:#dddddd;stroke-width:1pt;stroke-opacity:1;fill:#c7cb2c;fill-opacity:1"
         transform="scale(0.8) translate(12.5,0)" />
    </marker>
    <marker
       inkscape:stockid="Arrow1Lstart"
       orient="auto"
       refY="0.0"
       refX="0.0"
       id="marker2407"
       style="overflow:visible"
       inkscape:isstock="true">
      <path
         id="path2405"
         d="M 0.0,0.0 L 5.0,-5.0 L -12.5,0.0 L 5.0,5.0 L 0.0,0.0 z "
         style="fill-rule:evenodd;stroke:#dddddd;stroke-width:1pt;stroke-opacity:1;fill:#c7cb2c;fill-opacity:1"
         transform="scale(0.8) translate(12.5,0)" />
    </marker>
    <marker
       inkscape:stockid="Arrow1Lstart"
       orient="auto"
       refY="0.0"
       refX="0.0"
       id="marker2379"
       style="overflow:visible"
       inkscape:isstock="true">
      <path
         id="path2377"
         d="M 0.0,0.0 L 5.0,-5.0 L -12.5,0.0 L 5.0,5.0 L 0.0,0.0 z "
         style="fill-rule:evenodd;stroke:#dddddd;stroke-width:1pt;stroke-opacity:1;fill:#c7cb2c;fill-opacity:1"
         transform="scale(0.8) translate(12.5,0)" />
    </marker>
    <marker
       inkscape:stockid="Arrow1Lstart"
       orient="auto"
       refY="0.0"
       refX="0.0"
       id="marker2357"
       style="overflow:visible"
       inkscape:isstock="true">
      <path
         id="path2355"
         d="M 0.0,0.0 L 5.0,-5.0 L -12.5,0.0 L 5.0,5.0 L 0.0,0.0 z "
         style="fill-rule:evenodd;stroke:#dddddd;stroke-width:1pt;stroke-opacity:1;fill:#c7cb2c;fill-opacity:1"
         transform="scale(0.8) translate(12.5,0)" />
    </marker>
    <marker
       inkscape:stockid="Arrow1Lstart"
       orient="auto"
       refY="0.0"
       refX="0.0"
       id="Arrow1Lstart"
       style="overflow:visible"
       inkscape:isstock="true">
      <path
         id="path2079"
         d="M 0.0,0.0 L 5.0,-5.0 L -12.5,0.0 L 5.0,5.0 L 0.0,0.0 z "
         style="fill-rule:evenodd;stroke:#dddddd;stroke-width:1pt;stroke-opacity:1;fill:#c7cb2c;fill-opacity:1"
         transform="scale(0.8) translate(12.5,0)" />
    </marker>
    <inkscape:path-effect
       effect="copy_rotate"
       starting_point="20.082402,-28.377326"
       origin="-6.3964131,-5.3807571"
       id="path-effect10772"
       is_visible="true"
       copies_to_360="false"
       fuse_paths="false"
       starting_angle="40.973969"
       rotation_angle="6.6"
       num_copies="14" />
    <inkscape:path-effect
       fuse_tolerance="0"
       vertical_pattern="false"
       prop_units="false"
       tang_offset="0"
       normal_offset="0"
       spacing="0"
       scale_y_rel="false"
       prop_scale="2.5747332"
       copytype="repeated_stretched"
       pattern="m 194.79013,-246.65212 c 0,0 0,-1.32292 1.32292,-1.32292 1.32292,0 1.32292,1.32292 1.32292,1.32292 z"
       is_visible="true"
       id="path-effect1689"
       effect="skeletal" />
    <inkscape:path-effect
       num_copies="6"
       rotation_angle="60"
       starting_angle="0"
       fuse_paths="false"
       copies_to_360="true"
       is_visible="true"
       id="path-effect1685"
       origin="121.95319,35.57657"
       starting_point="128.54689,35.57657"
       effect="copy_rotate" />
    <inkscape:path-effect
       oposite_fuse="false"
       fuse_paths="false"
       discard_orig_path="false"
       mode="free"
       is_visible="true"
       id="path-effect1683"
       center_point="121.95319,24.559446"
       end_point="121.95319,32.734223"
       start_point="121.95319,16.384669"
       effect="mirror_symmetry" />
    <inkscape:path-effect
       effect="skeletal"
       id="path-effect894"
       is_visible="true"
       pattern="m 89.950861,-247.97503 c 0,0 0,-1.32292 1.322917,-1.32292 1.322916,0 1.322916,1.32292 1.322916,1.32292 z"
       copytype="repeated_stretched"
       prop_scale="2.4809403"
       scale_y_rel="false"
       spacing="0"
       normal_offset="0"
       tang_offset="0"
       prop_units="false"
       vertical_pattern="false"
       fuse_tolerance="0" />
    <inkscape:path-effect
       effect="copy_rotate"
       starting_point="75.121573,29.936765"
       origin="71.331306,29.936765"
       id="path-effect844"
       is_visible="true"
       copies_to_360="true"
       fuse_paths="false"
       starting_angle="0"
       rotation_angle="60"
       num_copies="6" />
    <inkscape:path-effect
       effect="copy_rotate"
       starting_point="11.987818,1122.5197"
       origin="0,1122.5197"
       id="path-effect823"
       is_visible="true"
       copies_to_360="true"
       fuse_paths="false"
       starting_angle="0"
       rotation_angle="60"
       num_copies="6" />
    <inkscape:path-effect
       effect="copy_rotate"
       starting_point="-50.033015,291.70833"
       origin="-62.021666,291.70833"
       id="path-effect821"
       is_visible="true"
       copies_to_360="true"
       fuse_paths="false"
       starting_angle="0"
       rotation_angle="60"
       num_copies="6" />
    <inkscape:path-effect
       effect="mirror_symmetry"
       start_point="71.331306,17.020215"
       end_point="71.331306,28.023807"
       center_point="71.331306,22.522011"
       id="path-effect819"
       is_visible="true"
       mode="free"
       discard_orig_path="false"
       fuse_paths="false"
       oposite_fuse="false" />
    <pattern
       patternUnits="userSpaceOnUse"
       width="9.9999987"
       height="5.0000126"
       patternTransform="matrix(0.26458333,0,0,0.26458333,48.947916,295.67708)"
       id="pattern896">
      <path
         inkscape:connector-curvature="0"
         id="path891"
         d="M 0,5.0000126 C 0,5.0000126 0,0 5.0000013,0 9.9999987,0 9.9999987,5.0000126 9.9999987,5.0000126 Z"
         style="fill:#51cb2c;fill-opacity:1;stroke:none;stroke-width:0.99999994px;stroke-linecap:butt;stroke-linejoin:miter;stroke-opacity:1" />
    </pattern>
    <filter
       inkscape:label="Basic Diffuse Bump"
       inkscape:menu="Bumps"
       inkscape:menu-tooltip="Matte emboss effect"
       style="color-interpolation-filters:sRGB"
       id="filter835">
      <feColorMatrix
         result="result2"
         type="luminanceToAlpha"
         in="SourceGraphic"
         id="feColorMatrix825" />
      <feDiffuseLighting
         lighting-color="#ffffff"
         in="result2"
         diffuseConstant="0.5"
         result="result1"
         surfaceScale="15"
         id="feDiffuseLighting829">
        <feDistantLight
           azimuth="225"
           elevation="10"
           id="feDistantLight827" />
      </feDiffuseLighting>
      <feComposite
         k4="0"
         k1="0"
         result="result9"
         operator="arithmetic"
         k2="1"
         k3="0.8"
         in2="SourceGraphic"
         id="feComposite831" />
      <feComposite
         in2="SourceGraphic"
         result="result7"
         operator="in"
         in="result9"
         id="feComposite833" />
    </filter>
    <filter
       inkscape:label="Bubbly Bumps"
       inkscape:menu="Bumps"
       inkscape:menu-tooltip="Flexible bubbles effect with some displacement"
       style="color-interpolation-filters:sRGB;"
       id="filter2173">
      <feGaussianBlur
         result="result0"
         in="SourceGraphic"
         stdDeviation="0.01"
         id="feGaussianBlur2147" />
      <feTurbulence
         baseFrequency="0"
         seed="144"
         numOctaves="1"
         result="result1"
         type="fractalNoise"
         id="feTurbulence2149" />
      <feGaussianBlur
         stdDeviation="0.01"
         result="result8"
         id="feGaussianBlur2151" />
      <feDisplacementMap
         result="result7"
         in2="result8"
         scale="0"
         in="result0"
         xChannelSelector="R"
         id="feDisplacementMap2153" />
      <feComposite
         result="result2"
         operator="in"
         in2="result1"
         in="result7"
         id="feComposite2155" />
      <feComposite
         k3="3"
         in2="result2"
         in="result0"
         operator="arithmetic"
         id="feComposite2157" />
      <feBlend
         result="fbSourceGraphic"
         mode="multiply"
         in2="result2"
         id="feBlend2159" />
      <feColorMatrix
         values="1 0 0 -1 0 1 0 1 -1 0 1 0 0 -1 0 -1.8 -0.5 0 5.7 -3.5 "
         in="fbSourceGraphic"
         result="fbSourceGraphicAlpha"
         id="feColorMatrix2161" />
      <feGaussianBlur
         stdDeviation="0.5"
         in="fbSourceGraphicAlpha"
         result="result0"
         id="feGaussianBlur2163" />
      <feSpecularLighting
         result="result6"
         surfaceScale="0.56000000000000005"
         specularExponent="20.600000000000001"
         id="feSpecularLighting2167"
         specularConstant="0.78000000000000003">
        <feDistantLight
           azimuth="225"
           elevation="10"
           id="feDistantLight2165" />
      </feSpecularLighting>
      <feComposite
         in2="fbSourceGraphicAlpha"
         in="result6"
         result="result2"
         operator="in"
         id="feComposite2169" />
      <feComposite
         in="fbSourceGraphic"
         result="result4"
         operator="arithmetic"
         k2="1"
         k3="0.7"
         in2="result2"
         id="feComposite2171" />
    </filter>
    <filter
       style="color-interpolation-filters:sRGB;"
       inkscape:label="Drop Shadow"
       id="filter2373">
      <feFlood
         flood-opacity="0.88124999999999998"
         flood-color="rgb(0,0,0)"
         result="flood"
         id="feFlood2363" />
      <feComposite
         in="flood"
         in2="SourceGraphic"
         operator="in"
         result="composite1"
         id="feComposite2365"
         flood-opacity="0.88" />
      <feGaussianBlur
         in="composite1"
         stdDeviation="0.01"
         result="blur"
         id="feGaussianBlur2367" />
      <feOffset
         dx="0"
         dy="1.25"
         result="offset"
         id="feOffset2369" />
      <feComposite
         in="offset"
         in2="SourceGraphic"
         operator="out"
         result="composite2"
         id="feComposite2371"
         dy="1.2" />
    </filter>
    <path
       style="fill:none;stroke:#000000;stroke-width:0.118443px;stroke-linecap:butt;stroke-linejoin:miter;stroke-opacity:1"
       d="m 57.127978,140.91503 c 0,0 13.856854,9.02457 44.062642,5.56285 0,0 10.33404,0.70576 14.3858,0.1862 4.64951,-0.59622 3.13575,1.54665 11.0517,-0.13917 22.34012,-4.75768 27.28116,6.28291 26.67227,5.91757"
       id="path877"
       inkscape:connector-curvature="0"
       sodipodi:nodetypes="ccssc" />
    <path
       style="fill:none;stroke:#000000;stroke-width:0.15157808px;stroke-linecap:butt;stroke-linejoin:miter;stroke-opacity:1"
       d="m 48.8887,170.28496 c 0,0 2.189323,-7.61929 27.705294,-5.03192 25.515966,2.58738 28.205866,11.23802 28.205866,11.23802"
       id="path861"
       inkscape:connector-curvature="0" />
    <inkscape:perspective
       id="perspective4636"
       inkscape:persp3d-origin="75.5 : 32.666667 : 1"
       inkscape:vp_z="151 : 49 : 1"
       inkscape:vp_y="0 : 1000 : 0"
       inkscape:vp_x="0 : 49 : 1"
       sodipodi:type="inkscape:persp3d" />
    <filter
       inkscape:label="Bubbly Bumps"
       inkscape:menu="Bumps"
       inkscape:menu-tooltip="Flexible bubbles effect with some displacement"
       style="color-interpolation-filters:sRGB;"
       id="filter10766">
      <feGaussianBlur
         result="result0"
         in="SourceGraphic"
         stdDeviation="0.01"
         id="feGaussianBlur10740" />
      <feTurbulence
         baseFrequency="0"
         seed="300"
         numOctaves="10"
         result="result1"
         type="fractalNoise"
         id="feTurbulence10742" />
      <feGaussianBlur
         stdDeviation="0.01"
         result="result8"
         id="feGaussianBlur10744" />
      <feDisplacementMap
         result="result7"
         in2="result8"
         scale="0"
         in="result0"
         xChannelSelector="R"
         id="feDisplacementMap10746" />
      <feComposite
         result="result2"
         operator="in"
         in2="result1"
         in="result7"
         id="feComposite10748" />
      <feComposite
         k3="3"
         in2="result2"
         in="result0"
         operator="arithmetic"
         id="feComposite10750" />
      <feBlend
         result="fbSourceGraphic"
         mode="multiply"
         in2="result2"
         id="feBlend10752" />
      <feColorMatrix
         values="1 0 0 -1 0 1 0 1 -1 0 1 0 0 -1 0 -1.8 -0.5 0 5.7 -3.5 "
         in="fbSourceGraphic"
         result="fbSourceGraphicAlpha"
         id="feColorMatrix10754" />
      <feGaussianBlur
         stdDeviation="0.5"
         in="fbSourceGraphicAlpha"
         result="result0"
         id="feGaussianBlur10756" />
      <feSpecularLighting
         result="result6"
         surfaceScale="5"
         specularExponent="3"
         id="feSpecularLighting10760">
        <feDistantLight
           azimuth="225"
           elevation="10"
           id="feDistantLight10758" />
      </feSpecularLighting>
      <feComposite
         in2="fbSourceGraphicAlpha"
         in="result6"
         result="result2"
         operator="in"
         id="feComposite10762" />
      <feComposite
         in="fbSourceGraphic"
         result="result4"
         operator="arithmetic"
         k2="1"
         k3="0.7"
         in2="result2"
         id="feComposite10764" />
    </filter>
    <filter
       style="color-interpolation-filters:sRGB;"
       inkscape:label="Blur"
       id="filter10776">
      <feGaussianBlur
         stdDeviation="0.5 0.5"
         result="blur"
         id="feGaussianBlur10774" />
    </filter>
    <filter
       inkscape:label="Bright Metal"
       inkscape:menu="Bevels"
       inkscape:menu-tooltip="Bright metallic effect for any color"
       style="color-interpolation-filters:sRGB;"
       id="filter2094">
      <feGaussianBlur
         result="result1"
         in="SourceAlpha"
         stdDeviation="2.2"
         id="feGaussianBlur2070" />
      <feSpecularLighting
         result="result0"
         specularExponent="18.1"
         specularConstant="2"
         surfaceScale="5"
         id="feSpecularLighting2074">
        <feDistantLight
           azimuth="225"
           elevation="24"
           id="feDistantLight2072" />
      </feSpecularLighting>
      <feComposite
         result="result6"
         operator="in"
         in2="SourceAlpha"
         id="feComposite2076" />
      <feMorphology
         radius="5.7"
         operator="dilate"
         id="feMorphology2078" />
      <feGaussianBlur
         result="result11"
         stdDeviation="5.7"
         id="feGaussianBlur2080" />
      <feDiffuseLighting
         surfaceScale="5"
         result="result3"
         diffuseConstant="2"
         in="result1"
         id="feDiffuseLighting2084">
        <feDistantLight
           elevation="25"
           azimuth="225"
           id="feDistantLight2082" />
      </feDiffuseLighting>
      <feBlend
         result="result7"
         mode="multiply"
         in="result3"
         in2="SourceGraphic"
         id="feBlend2086" />
      <feComposite
         in="result7"
         operator="in"
         in2="SourceAlpha"
         result="result91"
         id="feComposite2088" />
      <feBlend
         result="result9"
         mode="lighten"
         in="result6"
         in2="result91"
         id="feBlend2090" />
      <feComposite
         in="result11"
         in2="result9"
         id="feComposite2092"
         result="fbSourceGraphic" />
      <feColorMatrix
         result="fbSourceGraphicAlpha"
         in="fbSourceGraphic"
         values="0 0 0 -1 0 0 0 0 -1 0 0 0 0 -1 0 0 0 0 1 0"
         id="feColorMatrix2096" />
      <feGaussianBlur
         id="feGaussianBlur2098"
         result="result6"
         stdDeviation="8"
         in="fbSourceGraphic" />
      <feComposite
         in2="fbSourceGraphic"
         id="feComposite2100"
         in="result6"
         operator="xor"
         result="result10" />
      <feGaussianBlur
         id="feGaussianBlur2102"
         result="result2"
         stdDeviation="8" />
      <feComposite
         in2="fbSourceGraphic"
         id="feComposite2104"
         operator="atop"
         in="result10"
         result="result91" />
      <feComposite
         in2="result91"
         id="feComposite2106"
         result="result4"
         in="result2"
         operator="xor" />
      <feGaussianBlur
         id="feGaussianBlur2108"
         in="result4"
         result="result3"
         stdDeviation="4" />
      <feSpecularLighting
         id="feSpecularLighting2110"
         result="result5"
         specularExponent="5"
         specularConstant="1.1"
         surfaceScale="18">
        <feDistantLight
           id="feDistantLight2112"
           azimuth="235"
           elevation="55" />
      </feSpecularLighting>
      <feComposite
         in2="result5"
         id="feComposite2114"
         in="result3"
         k3="1.1"
         k2="0.5"
         operator="arithmetic"
         result="result7"
         k1="0.5" />
      <feComposite
         in2="fbSourceGraphic"
         id="feComposite2116"
         in="result7"
         operator="atop"
         result="result8" />
    </filter>
  </defs>
  <sodipodi:namedview
     id="base"
     pagecolor="#ffffff"
     bordercolor="#666666"
     borderopacity="1.0"
     inkscape:pageopacity="0.0"
     inkscape:pageshadow="2"
     inkscape:zoom="2.8"
     inkscape:cx="257.17512"
     inkscape:cy="968.57282"
     inkscape:document-units="mm"
     inkscape:current-layer="layer1"
     showgrid="false"
     inkscape:window-width="1366"
     inkscape:window-height="713"
     inkscape:window-x="0"
     inkscape:window-y="0"
     inkscape:window-maximized="1"
     inkscape:object-nodes="false">
    <inkscape:grid
       type="xygrid"
       id="grid815" />
  </sodipodi:namedview>
  <metadata
     id="metadata5">
    <rdf:RDF>
      <cc:Work
         rdf:about="">
        <dc:format>image/svg+xml</dc:format>
        <dc:type
           rdf:resource="http://purl.org/dc/dcmitype/StillImage" />
        <dc:title></dc:title>
      </cc:Work>
    </rdf:RDF>
  </metadata>
  <g
     inkscape:label="Layer 1"
     inkscape:groupmode="layer"
     id="layer1">
    <path
       style="fill:#50a9c4;fill-opacity:1;stroke:#b85bc7;stroke-width:1.04769704;stroke-linecap:round;stroke-linejoin:miter;stroke-miterlimit:4;stroke-dasharray:none;stroke-opacity:1;opacity:0.96"
       d="m 71.331306,28.940772 c -4.584831,-4.584831 -5.501796,-13.75449 -10e-7,-11.920557 m -0.862554,12.418554 c -6.262996,1.678164 -14.662636,-2.11255 -10.323506,-5.960278 m 10.323506,6.956271 c -1.678165,6.262995 -9.16084,11.64194 -10.323505,5.960279 m 11.18606,-5.462283 c 4.584831,4.584831 5.501796,13.75449 10e-7,11.920557 m 0.862554,-12.418554 c 6.262996,-1.678164 14.662636,2.11255 10.323506,5.960278 m -10.323506,-6.95627 c 1.678165,-6.262996 9.16084,-11.641941 10.323505,-5.96028 m -11.18606,5.462283 c 4.584831,-4.584831 5.501796,-13.75449 10e-7,-11.920557 m -0.862556,12.418554 c -1.678165,-6.262996 -9.16084,-11.641941 -10.323505,-5.96028 m 10.323505,6.956273 c -6.262996,-1.678165 -14.662636,2.112549 -10.323506,5.960277 m 11.186061,-5.462281 c -4.584831,4.584831 -5.501796,13.75449 -10e-7,11.920557 m 0.862556,-12.418554 c 1.678165,6.262996 9.16084,11.641941 10.323505,5.96028 M 72.193861,29.438769 c 6.262996,1.678164 14.662636,-2.11255 10.323506,-5.960278"
       id="path817"
       inkscape:connector-curvature="0"
       sodipodi:nodetypes="cc"
       inkscape:path-effect="#path-effect819;#path-effect844"
       inkscape:original-d="m 71.331306,28.940772 c -4.584831,-4.584831 -5.501796,-13.75449 -10e-7,-11.920557"
       transform="matrix(1.4317116,0,0,1.4317116,-29.190921,-7.7122925)"
       inkscape:export-xdpi="233.879"
       inkscape:export-ydpi="233.879" />
    <path
       style="opacity:1;fill:#dae01c;fill-opacity:1;stroke:#44a144;stroke-width:0.5;stroke-miterlimit:4;stroke-dasharray:none;stroke-opacity:1"
       d="m 75.232386,35.035374 c 0,0 0.829364,-0.04047 1.636736,0.171383 0.767485,0.201385 1.633922,0.778203 1.253756,1.7545 -0.373679,0.959638 -1.393315,0.785356 -2.104409,0.432757 -0.747016,-0.370411 -1.352356,-0.929112 -1.352356,-0.929112 0.371877,-0.429427 0.610103,-0.955404 0.566273,-1.429528 z m -0.566273,1.429528 c 0,0 0.646528,0.509826 1.13011,1.189548 0.46103,0.648023 0.794653,1.628822 -0.07772,2.149551 -0.881215,0.526006 -1.598492,-0.225541 -1.939606,-0.934187 -0.358646,-0.745069 -0.480963,-1.554684 -0.480963,-1.554684 0.490775,-0.08792 0.996303,-0.4208 1.36818,-0.850228 z m -1.36818,0.850228 c 0,0 0.113721,0.499785 0.146962,1.119123 0.03302,0.615276 -0.03026,1.373719 -0.509959,1.819239 0,0 0,0 0,0 -0.245075,0.214334 -0.591531,0.327244 -0.99339,0.244764 -1.032612,-0.211939 -1.028077,-1.248402 -0.796661,-2.001703 0.243942,-0.794075 0.698378,-1.478472 0.698378,-1.478472 0.35132,0.221832 0.73608,0.347615 1.091673,0.314743 0.118531,0.01096 0.240303,0.0043 0.362997,-0.01769 z m -1.45467,-0.297049 c 0,0 -0.397579,0.71781 -0.990046,1.30137 -0.564814,0.556324 -1.483319,1.039655 -2.137132,0.26845 -0.655978,-0.773759 -0.03288,-1.604854 0.605752,-2.06715 0.6706,-0.485436 1.442896,-0.753851 1.442896,-0.753851 0.201124,0.488876 0.610103,0.955405 1.07853,1.251181 z M 70.764733,35.7669 c 0,0 -0.747327,0.333665 -1.567896,0.437907 -0.774305,0.09837 -1.806268,-0.07902 -1.841437,-1.169433 10e-7,0 10e-7,0 10e-7,0 0.03517,-1.090412 1.067131,-1.267796 1.841436,-1.169431 0.820569,0.104242 1.567895,0.437907 1.567895,0.437907 -0.100562,0.244438 -0.149161,0.494463 -0.127246,0.731524 -0.02191,0.237062 0.02668,0.487088 0.127247,0.731526 z m -1e-6,-1.46305 c 0,0 -0.772296,-0.268416 -1.442895,-0.753851 -0.638634,-0.462296 -1.26173,-1.293391 -0.605752,-2.067151 0.653813,-0.771204 1.572317,-0.287874 2.137132,0.26845 0.592466,0.58356 0.990045,1.301371 0.990045,1.301371 -0.468427,0.295776 -0.877405,0.762304 -1.07853,1.251181 z m 1.07853,-1.251181 c 0,0 -0.454436,-0.684398 -0.698378,-1.478473 -0.231416,-0.753301 -0.23595,-1.789764 0.796662,-2.001704 0.401859,-0.08248 0.748315,0.03043 0.99339,0.244766 0,0 0,0 0,0 0.479697,0.445519 0.542982,1.203962 0.509959,1.819238 -0.03324,0.619338 -0.146963,1.119123 -0.146963,1.119123 -0.122694,-0.02198 -0.244465,-0.02865 -0.362996,-0.01769 -0.355593,-0.03287 -0.740353,0.09291 -1.091674,0.314744 z m 1.45467,-0.29705 c 0,0 0.122318,-0.809615 0.480963,-1.554684 0.341114,-0.708646 1.058392,-1.460194 1.939607,-0.934187 0.872373,0.520728 0.53875,1.501527 0.07772,2.149551 -0.483581,0.679721 -1.130109,1.189547 -1.130109,1.189547 -0.371877,-0.429427 -0.877406,-0.762304 -1.368181,-0.850227 z m 1.368181,0.850227 c 0,0 0.605339,-0.5587 1.352356,-0.929112 0.711094,-0.352599 1.73073,-0.526881 2.104409,0.432758 0.380166,0.976297 -0.486271,1.553114 -1.253756,1.754499 -0.807372,0.211852 -1.636736,0.171383 -1.636736,0.171383 0.04383,-0.474123 -0.194396,-1.000101 -0.566273,-1.429528 z"
       id="path881"
       inkscape:path-effect="#path-effect894"
       inkscape:original-d="m 76.873429,35.035374 a 3.9384925,3.9384925 0 0 1 -3.938493,3.938493 3.9384925,3.9384925 0 0 1 -3.938493,-3.938493 3.9384925,3.9384925 0 0 1 3.938493,-3.938492 3.9384925,3.9384925 0 0 1 3.938493,3.938492 z"
       inkscape:connector-curvature="0"
       inkscape:export-xdpi="233.879"
       inkscape:export-ydpi="233.879" />
    <circle
       style="opacity:1;fill:#3acf0e;fill-opacity:1;stroke:none;stroke-width:0.13148981;stroke-miterlimit:4;stroke-dasharray:none;stroke-opacity:1"
       id="path1638"
       cx="72.934937"
       cy="35.035374"
       r="2.6256616" />
    <path
       inkscape:original-d="m 121.95319,34.096685 c -7.65473,-11.024401 -9.85961,-18.471303 0,-17.712016"
       inkscape:path-effect="#path-effect1683;#path-effect1685"
       sodipodi:nodetypes="cc"
       inkscape:connector-curvature="0"
       id="path1681"
       d="m 121.95319,34.096685 c -7.65473,-11.024401 -9.85961,-18.471303 0,-17.712016 m -1.28162,18.451958 C 107.2968,35.953618 99.745149,34.139649 105.33252,25.980619 m 15.33905,10.335893 c -5.72004,12.141392 -11.06681,17.774325 -15.33905,8.856008 m 16.62067,-8.116065 c 7.65473,11.024401 9.85961,18.471303 0,17.712016 m 1.28162,-18.451959 c 13.37477,-1.11699 20.92642,0.696979 15.33905,8.856009 M 123.23481,34.836627 c 5.72004,-12.141391 11.06681,-17.774324 15.33905,-8.856008 m -16.62067,8.116066 c 7.65473,-11.024401 9.85961,-18.471303 0,-17.712016 m -1.28162,18.451958 C 114.95153,22.695236 109.60476,17.062303 105.33252,25.980619 m 15.33905,10.335893 c -13.37477,-1.11699 -20.926421,0.696979 -15.33905,8.856008 m 16.62067,-8.116065 c -7.65473,11.024401 -9.85961,18.471303 0,17.712016 m 1.28162,-18.451959 c 5.72004,12.141392 11.06681,17.774325 15.33905,8.856009 M 123.23481,34.836627 c 13.37477,1.116991 20.92642,-0.696978 15.33905,-8.856008"
       style="fill:#d662e8;fill-opacity:1;stroke:#1e4f89;stroke-width:0.74291903;stroke-linecap:butt;stroke-linejoin:miter;stroke-miterlimit:4;stroke-dasharray:none;stroke-opacity:1;" />
    <path
       inkscape:connector-curvature="0"
       inkscape:original-d="m 126.04058,35.459147 a 4.0873888,4.0873888 0 0 1 -4.08739,4.087389 4.0873888,4.0873888 0 0 1 -4.08738,-4.087389 4.0873888,4.0873888 0 0 1 4.08738,-4.087389 4.0873888,4.0873888 0 0 1 4.08739,4.087389 z"
       inkscape:path-effect="#path-effect1689"
       id="path1687"
       d="m 124.3375,35.459147 c 0,0 0.86072,-0.042 1.69861,0.177862 0.7965,0.208998 1.69569,0.807623 1.30115,1.820829 -0.3878,0.995918 -1.44599,0.815047 -2.18396,0.449118 -0.77526,-0.384415 -1.40348,-0.964237 -1.40348,-0.964237 0.38593,-0.445662 0.63316,-0.991524 0.58768,-1.483572 z m -0.58768,1.483572 c 0,0 0.67097,0.5291 1.17283,1.234519 0.47846,0.672522 0.82469,1.6904 -0.0807,2.230816 -0.91453,0.545892 -1.65892,-0.234068 -2.01293,-0.969505 -0.37221,-0.773236 -0.49915,-1.613459 -0.49915,-1.613459 0.50933,-0.09125 1.03397,-0.436709 1.41991,-0.882371 z m -1.41991,0.882371 c 0,0 0.11802,0.51868 0.15252,1.161433 0.0343,0.638537 -0.0314,1.425653 -0.52924,1.888016 0,0 0,0 0,0 -0.25434,0.222436 -0.6139,0.339613 -1.03095,0.254015 -1.07165,-0.219954 -1.06694,-1.295601 -0.82677,-2.077381 0.25316,-0.824094 0.72478,-1.534365 0.72478,-1.534365 0.3646,0.230219 0.76391,0.360759 1.13294,0.326645 0.12301,0.01137 0.24939,0.0044 0.37672,-0.01836 z m -1.50966,-0.308282 c 0,0 -0.41261,0.744947 -1.02748,1.350568 -0.58616,0.577354 -1.53939,1.078956 -2.21792,0.278594 -0.68078,-0.803013 -0.0341,-1.665527 0.62865,-2.145299 0.69595,-0.503786 1.49745,-0.782347 1.49745,-0.782347 0.20873,0.507359 0.63316,0.991525 1.1193,1.298484 z m -1.1193,-1.298484 c 0,0 -0.77558,0.346276 -1.62717,0.454459 -0.80358,0.102082 -1.87455,-0.08201 -1.91105,-1.213636 0,0 0,-1.1e-5 0,-1.1e-5 0.0365,-1.131636 1.10747,-1.315724 1.91105,-1.213639 0.85159,0.108184 1.62717,0.454465 1.62717,0.454465 -0.10436,0.253681 -0.1548,0.51316 -0.13206,0.759185 -0.0227,0.246023 0.0277,0.505499 0.13206,0.759177 z m 0,-1.518362 c 0,0 -0.80149,-0.278564 -1.49744,-0.782353 -0.66278,-0.479774 -1.30943,-1.34229 -0.62865,-2.145301 0.67853,-0.800359 1.63176,-0.298755 2.21793,0.278602 0.61486,0.605623 1.02747,1.350571 1.02747,1.350571 -0.48614,0.306957 -0.91058,0.791122 -1.11931,1.298481 z m 1.11931,-1.298481 c 0,0 -0.47162,-0.710272 -0.72478,-1.534368 -0.24016,-0.78178 -0.24487,-1.857427 0.82679,-2.077377 0.41704,-0.0856 0.77658,0.03158 1.03092,0.254 0,0 0,0 0,0 0.49785,0.462358 0.56353,1.24948 0.52925,1.888024 -0.0345,0.642759 -0.15252,1.161446 -0.15252,1.161446 -0.12733,-0.02281 -0.25371,-0.02974 -0.37673,-0.01837 -0.36903,-0.03411 -0.76833,0.09642 -1.13293,0.32664 z m 1.50966,-0.308275 c 0,0 0.12694,-0.840223 0.49915,-1.613457 0.35401,-0.735436 1.09841,-1.515393 2.01294,-0.969498 0.90535,0.540419 0.55911,1.558296 0.0806,2.230817 -0.50187,0.705416 -1.17284,1.234514 -1.17284,1.234514 -0.38593,-0.445663 -0.91057,-0.791127 -1.4199,-0.882376 z m 1.4199,0.882376 c 0,0 0.62823,-0.57982 1.40349,-0.964232 0.73798,-0.365926 1.79616,-0.546794 2.18396,0.449126 0.39454,1.013208 -0.50466,1.611829 -1.30116,1.820824 -0.8379,0.219857 -1.69861,0.177855 -1.69861,0.177855 0.0455,-0.492048 -0.20174,-1.03791 -0.58768,-1.483573 z"
       style="opacity:1;fill:#cb2c68;fill-opacity:1;stroke:#dddddd;stroke-width:0.13646084;stroke-miterlimit:4;stroke-dasharray:none;stroke-opacity:1" />
    <circle
       r="2.7249258"
       cy="35.459148"
       cx="121.9532"
       id="circle1691"
       style="opacity:1;fill:#51cb2c;fill-opacity:1;stroke:none;stroke-width:0.13646084;stroke-miterlimit:4;stroke-dasharray:none;stroke-opacity:1" />
    <text
       transform="rotate(-25.093937)"
       id="text10710"
       style="font-style:normal;font-variant:normal;font-weight:normal;font-stretch:normal;font-size:8.39560032px;line-height:1.25;font-family:'Hippie Movement';-inkscape-font-specification:'Hippie Movement';letter-spacing:0px;word-spacing:0px;fill:#e7b9e1;fill-opacity:1;stroke:#000000;stroke-width:0.24011037;stroke-miterlimit:4;stroke-dasharray:none;stroke-opacity:1"
       xml:space="preserve"
       x="33.063992"
       y="-94.489891"><textPath
         id="textPath10708"
         xlink:href="#path861"
         style="stroke:#000000;stroke-width:0.24011037;stroke-miterlimit:4;stroke-dasharray:none;stroke-opacity:1"><tspan
   id="tspan10706"
   style="font-size:8.39560032px;fill:#e7b9e1;fill-opacity:1;stroke:#000000;stroke-width:0.24011037;stroke-miterlimit:4;stroke-dasharray:none;stroke-opacity:1"><tspan
     x="45.271973"
     y="-71.773193"
     id="tspan10704"
     style="font-size:8.39560032px;fill:#e7b9e1;fill-opacity:1;stroke:#000000;stroke-width:0.24011037;stroke-miterlimit:4;stroke-dasharray:none;stroke-opacity:1">Peace</tspan></tspan></textPath></text>
    <rect
       style="opacity:1;fill:#ffffff;fill-opacity:1;stroke:none;stroke-width:0.46499997;stroke-miterlimit:4;stroke-dasharray:none;stroke-opacity:1"
       id="rect10736"
       width="180.67419"
       height="20.045216"
       x="-12.828938"
       y="78.6408" />
    <circle
       style="opacity:0.95999995;fill:none;fill-opacity:1;stroke:#000000;stroke-width:0.46499997;stroke-miterlimit:4;stroke-dasharray:none;stroke-opacity:1"
       id="path10770"
       cx="-83.120819"
       cy="148.66541"
       r="23.252449" />
  </g>
</svg>
